# xmcd
#
# Track frame offsets:
#	150
#	8231
#	25937
#	37314
#	49272
#	61234
#	71894
#	83541
#	97378
#	111198
#	123080
#	136514
#	150577
#	161439
#	171868
#
# Disc length: 2434 seconds
#
# Revision: 0
# Processed by: cddbd v1.5.2PL0 Copyright (c) Steve Scherf et al.
# Submitted via: audiograbber 1.83.01
#
DISCID=c309800f
DTITLE=Miscalenious - Simply country love disc 3
DYEAR=1900
DGENRE=Country
TTITLE0=Johnny Cash - I can't help it
TTITLE1=Kenny Rodgers - Something's burning
TTITLE2=Boxcar Willie - Rollin' in my sweet bzby's arms
TTITLE3=Jerry Lee Lewis - Crazy Arms
TTITLE4=Carl Perkings - Forever yours
TTITLE5=Jeannie C.Riley - Help me make it through the night
TTITLE6=Patsy Cline - Let the teardrops fall
TTITLE7=Patti Page - The Tennessee waltz
TTITLE8=Web Price - Back street affair
TTITLE9=Kitty Wells - Paying for that back street affair
TTITLE10=Tex Ritter - Jealous heart
TTITLE11=Gene Autry - Maria Elena
TTITLE12=Roy Rogers - My Chickasy gal 
TTITLE13=Tennessee Ernie Ford - Cool cool kisses
TTITLE14=Waylon Jennings - Dream baby
EXTD=
EXTT0=
EXTT1=
EXTT2=
EXTT3=
EXTT4=
EXTT5=
EXTT6=
EXTT7=
EXTT8=
EXTT9=
EXTT10=
EXTT11=
EXTT12=
EXTT13=
EXTT14=
PLAYORDER=
